<svg width="519" height="145" viewBox="0 0 519 145" fill="none" xmlns="http://www.w3.org/2000/svg">
<rect x="17.6646" y="32.6613" width="18.3447" height="83.8116" transform="rotate(-45 17.6646 32.6613)" fill="#E28413"/>
<rect x="30.6362" y="91.925" width="18.3447" height="83.8116" transform="rotate(-135 30.6362 91.925)" fill="#E28413"/>
<path d="M119.486 88.659C119.486 106.803 104.777 121.511 86.6339 121.511C68.4904 121.511 53.7822 106.803 53.7822 88.659C53.7822 70.5155 68.4904 55.8074 86.6339 55.8074C104.777 55.8074 119.486 70.5155 119.486 88.659ZM68.6043 88.659C68.6043 98.6165 76.6765 106.689 86.6339 106.689C96.5914 106.689 104.663 98.6165 104.663 88.659C104.663 78.7016 96.5914 70.6295 86.6339 70.6295C76.6765 70.6295 68.6043 78.7016 68.6043 88.659Z" fill="#E28413"/>
<path d="M150.713 24.7679H170.153C176.713 24.7679 181.633 26.5279 184.913 30.0479C188.193 33.5679 189.833 38.7279 189.833 45.5279V53.8079C189.833 60.6079 188.193 65.7679 184.913 69.2879C181.633 72.8079 176.713 74.5679 170.153 74.5679H163.913V108.768H150.713V24.7679ZM170.153 62.5679C172.313 62.5679 173.913 61.9679 174.953 60.7679C176.073 59.5679 176.633 57.5279 176.633 54.6479V44.6879C176.633 41.8079 176.073 39.7679 174.953 38.5679C173.913 37.3679 172.313 36.7679 170.153 36.7679H163.913V62.5679H170.153ZM197.003 24.7679H210.203V96.7679H231.923V108.768H197.003V24.7679ZM248.921 24.7679H266.801L280.481 108.768H267.281L264.881 92.0879V92.3279H249.881L247.481 108.768H235.241L248.921 24.7679ZM263.321 80.9279L257.441 39.4079H257.201L251.441 80.9279H263.321ZM293.498 73.0079L277.538 24.7679H291.578L300.578 55.6079H300.818L309.818 24.7679H322.658L306.698 73.0079V108.768H293.498V73.0079ZM328.604 24.7679H348.524C355.324 24.7679 360.284 26.3679 363.404 29.5679C366.524 32.6879 368.084 37.5279 368.084 44.0879V47.4479C368.084 51.7679 367.364 55.2879 365.924 58.0079C364.564 60.7279 362.444 62.6879 359.564 63.8879V64.1279C366.124 66.3679 369.404 72.2079 369.404 81.6479V88.8479C369.404 95.3279 367.684 100.288 364.244 103.728C360.884 107.088 355.924 108.768 349.364 108.768H328.604V24.7679ZM346.964 58.9679C349.604 58.9679 351.564 58.2879 352.844 56.9279C354.204 55.5679 354.884 53.2879 354.884 50.0879V45.4079C354.884 42.3679 354.324 40.1679 353.204 38.8079C352.164 37.4479 350.484 36.7679 348.164 36.7679H341.804V58.9679H346.964ZM349.364 96.7679C351.684 96.7679 353.404 96.1679 354.524 94.9679C355.644 93.6879 356.204 91.5279 356.204 88.4879V81.1679C356.204 77.3279 355.524 74.6879 354.164 73.2479C352.884 71.7279 350.724 70.9679 347.684 70.9679H341.804V96.7679H349.364ZM396.2 109.968C389.72 109.968 384.76 108.128 381.32 104.448C377.88 100.768 376.16 95.5679 376.16 88.8479V44.6879C376.16 37.9679 377.88 32.7679 381.32 29.0879C384.76 25.4079 389.72 23.5679 396.2 23.5679C402.68 23.5679 407.64 25.4079 411.08 29.0879C414.52 32.7679 416.24 37.9679 416.24 44.6879V88.8479C416.24 95.5679 414.52 100.768 411.08 104.448C407.64 108.128 402.68 109.968 396.2 109.968ZM396.2 97.9679C400.76 97.9679 403.04 95.2079 403.04 89.6879V43.8479C403.04 38.3279 400.76 35.5679 396.2 35.5679C391.64 35.5679 389.36 38.3279 389.36 43.8479V89.6879C389.36 95.2079 391.64 97.9679 396.2 97.9679ZM444.247 109.968C437.767 109.968 432.807 108.128 429.367 104.448C425.927 100.768 424.207 95.5679 424.207 88.8479V44.6879C424.207 37.9679 425.927 32.7679 429.367 29.0879C432.807 25.4079 437.767 23.5679 444.247 23.5679C450.727 23.5679 455.687 25.4079 459.127 29.0879C462.567 32.7679 464.287 37.9679 464.287 44.6879V88.8479C464.287 95.5679 462.567 100.768 459.127 104.448C455.687 108.128 450.727 109.968 444.247 109.968ZM444.247 97.9679C448.807 97.9679 451.087 95.2079 451.087 89.6879V43.8479C451.087 38.3279 448.807 35.5679 444.247 35.5679C439.687 35.5679 437.407 38.3279 437.407 43.8479V89.6879C437.407 95.2079 439.687 97.9679 444.247 97.9679ZM473.213 24.7679H486.413V60.1679L503.213 24.7679H516.413L500.693 55.6079L516.653 108.768H502.853L491.693 71.3279L486.413 82.0079V108.768H473.213V24.7679Z" fill="white"/>
<path d="M4.26081 97.3773C-1.69872 85.9656 -1.19141 72.3983 8.06476 61.2401C-0.739584 89.0281 13.9736 105.825 42.4267 110.818C36.2579 106.555 35.1532 105.596 34.3537 104.237L37.228 100.547C41.2296 104.237 46.9862 107.915 53.7822 110.818L49.6542 116.016C42.3937 116.867 38.5373 117.77 31.649 122.61C33.0839 119.137 33.7563 117.023 36.7083 115.465C28.1284 113.056 10.7562 109.815 4.26081 97.3773Z" fill="#757575"/>
</svg>
